 <svg  version="1.0" xmlns="http://www.w3.org/2000/svg"  width="300.000000pt" height="330.000000pt" viewBox="0 0 300.000000 330.000000"  preserveAspectRatio="xMidYMid meet">  <g transform="translate(0.000000,330.000000) scale(0.100000,-0.100000)" fill="#3868b0" stroke="none"> <path d="M848 2946 c-34 -26 -38 -64 -38 -382 l0 -314 242 0 243 0 -92 93 c-101 102 -113 121 -113 169 0 74 73 131 147 114 37 -8 438 -417 453 -462 15 -45 -6 -102 -49 -131 l-34 -23 -399 0 -400 0 4 -139 c3 -132 4 -141 27 -165 l24 -26 399 0 c454 0 501 5 633 70 167 81 261 235 284 465 11 111 -1 246 -31 339 -59 187 -232 344 -429 391 -87 20 -844 22 -871 1z"/> <path d="M872 1619 c-63 -19 -63 -14 -60 -653 l3 -574 25 -27 25 -26 430 3 c418 4 432 4 500 27 39 13 96 37 128 54 102 54 198 183 232 313 20 76 35 224 28 269 l-6 35 -266 0 -265 0 70 -72 c129 -133 137 -145 131 -195 -9 -81 -87 -132 -157 -103 -16 7 -122 106 -234 221 -168 170 -206 214 -212 244 -8 42 7 84 43 117 l25 23 404 3 c222 1 404 6 404 11 0 4 -22 39 -49 78 -82 116 -198 197 -338 235 -72 19 -107 21 -453 24 -232 2 -388 -1 -408 -7z"/> </g> </svg> 