<?xml version="1.0" encoding="UTF-8"?>
<svg version="1.1" xmlns="http://www.w3.org/2000/svg" width="853" height="938">
<path d="M0 0 C0.86177546 -0.00297112 1.72355091 -0.00594224 2.61144078 -0.0090034 C5.50505926 -0.01768852 8.39863636 -0.01919858 11.29226685 -0.02069092 C13.36550993 -0.0253197 15.43875217 -0.03034445 17.51199341 -0.03573608 C23.15354934 -0.04886759 28.79509336 -0.05530804 34.4366622 -0.05974674 C37.96863177 -0.06267994 41.50059812 -0.06678551 45.03256607 -0.07125092 C56.10322615 -0.08493592 67.17387882 -0.09459423 78.24454677 -0.09845281 C90.98354768 -0.10291788 103.72244044 -0.1203891 116.4614085 -0.1494534 C126.32842024 -0.17117488 136.19540182 -0.18116285 146.06243718 -0.18249393 C151.94400956 -0.1835357 157.82548044 -0.18930691 163.70702744 -0.20731354 C169.25728836 -0.22397291 174.80737352 -0.22586445 180.35765076 -0.21717453 C182.37701518 -0.21641325 184.39638975 -0.22062405 186.41572952 -0.23063278 C227.89235948 -0.4238692 268.4703878 10.37970333 301.54275513 36.14044189 C302.86146606 37.12657471 302.86146606 37.12657471 304.20681763 38.13262939 C318.60769662 49.31397653 331.65486765 62.81126763 341.54275513 78.14044189 C341.96991821 78.79834717 342.3970813 79.45625244 342.83718872 80.13409424 C374.01416589 128.86771553 377.78343762 192.05009905 366.06326294 247.4463501 C357.55353488 285.60099585 337.75943452 324.06323158 304.13259888 345.99200439 C277.83561627 361.98331204 249.07385598 370.69079566 218.54275513 374.14044189 C217.76805972 374.22807391 216.99336432 374.31570593 216.19519329 374.40599346 C206.0060827 375.40039182 195.81326867 375.30398153 185.58694458 375.31744385 C183.48157644 375.32371924 181.37620939 375.33036697 179.27084351 375.33735657 C172.39924877 375.35825198 165.52765414 375.36873764 158.65603638 375.37872314 C156.28253862 375.38277458 153.90904097 375.38689162 151.53554344 375.39107323 C140.39285825 375.41008414 129.25017956 375.42432995 118.1074813 375.4326852 C105.26538903 375.44247612 92.42346826 375.46886121 79.58143646 375.50918609 C69.63548714 375.53934247 59.68958707 375.55415317 49.74359292 375.55746621 C43.81053947 375.55981492 37.87767015 375.56875451 31.94466591 375.59392738 C26.3688588 375.61720805 20.79335716 375.62144123 15.21751404 375.611166 C13.17493867 375.61067073 11.13234821 375.61698863 9.08981895 375.63072205 C6.29502418 375.64845917 3.5013241 375.64132618 0.70652771 375.62818909 C-0.4967016 375.64464296 -0.4967016 375.64464296 -1.72423857 375.66142923 C-8.8263689 375.5811834 -14.69875359 373.39738931 -20.20724487 368.89044189 C-26.29225904 361.45320236 -28.61857121 356.06467016 -28.57077026 346.43438721 C-28.5709893 345.27771294 -28.5709893 345.27771294 -28.57121277 344.09767151 C-28.57051736 341.5546078 -28.56274236 339.01161777 -28.55490112 336.46856689 C-28.55303562 334.70308472 -28.55161234 332.93760202 -28.5506134 331.17211914 C-28.54679862 326.52952643 -28.53697719 321.8869651 -28.52590942 317.24438477 C-28.51567298 312.50531438 -28.51111099 307.76623891 -28.506073 303.02716064 C-28.495354 293.73157396 -28.47829004 284.43601054 -28.45724487 275.14044189 C-27.28625811 275.13897533 -26.11527134 275.13750877 -24.90880013 275.13599777 C2.91147891 275.10026687 30.73165787 275.04398402 58.55184173 274.96252094 C61.97882545 274.95250394 65.40580966 274.94265973 68.83279419 274.93292236 C69.51502187 274.93098099 70.19724955 274.92903962 70.90015079 274.92703941 C81.93498422 274.89605 92.96979687 274.87904732 104.0046656 274.86724767 C115.33428117 274.85482022 126.66376893 274.82698705 137.99332345 274.78582883 C144.35411547 274.76320676 150.7147524 274.74753168 157.07558823 274.74855804 C163.0657853 274.74930419 169.05563942 274.73137081 175.04574776 274.69927406 C177.2410596 274.69077368 179.43640991 274.68902605 181.63173103 274.69463921 C184.6370469 274.70129832 187.64127768 274.68331208 190.64648438 274.65942383 C191.50838312 274.66718425 192.37028187 274.67494466 193.25829875 274.68294024 C202.42449838 274.55460138 210.14425726 271.34447624 216.78884888 265.06231689 C223.95698613 257.20769879 226.08823617 248.93943683 225.83572388 238.40606689 C224.83954891 227.3020366 218.08963793 220.67559076 210.54275513 213.14044189 C209.79848267 212.39455811 209.05421021 211.64867432 208.28738403 210.88018799 C203.3353008 205.92204081 203.3353008 205.92204081 198.35696411 200.99029541 C197.5778064 200.22 196.79864868 199.44970459 195.99588013 198.65606689 C195.30655396 197.97834229 194.61722778 197.30061768 193.90701294 196.60235596 C192.04742609 194.66595841 190.31037081 192.70906893 188.57107544 190.66876221 C183.80075331 185.18126109 178.61672697 180.10305636 173.46043396 174.98295593 C171.59883481 173.13428315 169.74052009 171.28236228 167.88296509 169.42962646 C163.93904948 165.49706079 159.99120637 161.56845291 156.04275513 157.64044189 C151.46220484 153.08360406 146.88334063 148.52509782 142.30870056 143.96232605 C140.49014222 142.15018385 138.66856717 140.34111346 136.84683228 138.53216553 C131.70982761 133.41776193 126.62030798 128.30327379 121.93040466 122.76791382 C114.55647997 114.11958072 105.25746277 103.21782149 93.54275513 101.14044189 C82.55868652 100.29657768 74.00443632 101.35393604 65.23025513 108.26544189 C58.20017937 114.8978568 55.10446232 124.07400426 54.23025513 133.51544189 C56.25152235 156.96214166 82.9862909 175.67743195 98.53933716 191.04107666 C101.17497367 193.64673593 103.80453672 196.25840067 106.43338013 198.87091064 C107.65652924 200.07387032 107.65652924 200.07387032 108.90438843 201.3011322 C110.01750397 202.40917961 110.01750397 202.40917961 111.15310669 203.53961182 C111.80974304 204.18879074 112.46637939 204.83796967 113.14291382 205.50682068 C114.54275513 207.14044189 114.54275513 207.14044189 114.54275513 209.14044189 C67.35275513 209.14044189 20.16275513 209.14044189 -28.45724487 209.14044189 C-28.61845701 162.10680096 -28.61845701 162.10680096 -28.65255737 142.39630127 C-28.67629117 128.78710908 -28.70419132 115.17801595 -28.75900269 101.56890869 C-28.79890261 91.65742732 -28.82468536 81.74602633 -28.83359885 71.83446687 C-28.83880822 66.58755729 -28.85103037 61.34087764 -28.8801651 56.09404182 C-28.90738394 51.15203714 -28.91567676 46.21035637 -28.9096756 41.26828384 C-28.91077294 39.45791932 -28.91868817 37.64754357 -28.93406677 35.83724403 C-29.07588123 18.27708449 -29.07588123 18.27708449 -24.45724487 11.14044189 C-23.87974487 10.23294189 -23.30224487 9.32544189 -22.70724487 8.39044189 C-15.85357289 1.53676991 -9.45461437 -0.01016403 0 0 Z " fill="#FFFFFF" transform="translate(260.4572448730469,88.85955810546875)"/>
<path d="M0 0 C0.83137259 -0.00226556 1.66274519 -0.00453111 2.51931089 -0.00686532 C5.3039393 -0.01319284 8.08851888 -0.01237672 10.87315369 -0.0115509 C12.87097232 -0.01454346 14.86879037 -0.01794621 16.86660767 -0.02172852 C22.29723643 -0.03056995 27.72784943 -0.03290689 33.1584847 -0.0335443 C36.55827895 -0.03425554 39.95806921 -0.03639141 43.35786247 -0.03904152 C55.23991525 -0.04830038 67.1219568 -0.05237635 79.00401306 -0.05158997 C90.04127143 -0.0509913 101.07848059 -0.06150005 112.11572653 -0.07733363 C121.6150021 -0.09047006 131.11426174 -0.09577121 140.61354631 -0.09513456 C146.27592123 -0.09488105 151.93825256 -0.09764911 157.60061836 -0.10831261 C162.94156234 -0.11809488 168.28242202 -0.11800442 173.62336922 -0.11079597 C175.56778081 -0.10976209 177.51219794 -0.11204044 179.45660019 -0.11815643 C213.68444198 -0.21870857 247.53335389 5.10201335 277.7127533 22.13371277 C278.65272156 22.65336609 278.65272156 22.65336609 279.61167908 23.18351746 C294.19191689 31.29973845 306.66241129 41.66474691 318.7127533 53.13371277 C319.42947205 53.79757996 320.1461908 54.46144714 320.8846283 55.14543152 C329.19902998 63.07737073 335.82237967 72.47017395 341.9627533 82.13371277 C342.35059998 82.73699402 342.73844666 83.34027527 343.13804626 83.96183777 C345.72354749 88.13193039 347.82382067 92.44074391 349.86412048 96.90324402 C350.39914185 98.07089294 350.93416321 99.23854187 351.48539734 100.4415741 C351.8904248 101.32997986 352.29545227 102.21838562 352.7127533 103.13371277 C351.56238146 103.13702291 350.41200962 103.14033306 349.22677803 103.14374352 C321.89527625 103.22282795 294.56382322 103.3120731 267.23239578 103.41376438 C263.86549699 103.42628266 260.4985979 103.43871553 257.13169861 103.45109558 C256.46143339 103.45356157 255.79116817 103.45602757 255.10059188 103.45856829 C244.2597629 103.49824961 233.41892354 103.53101738 222.57806446 103.56121258 C211.44736382 103.59236964 200.31670533 103.63114341 189.18605316 103.67650282 C182.93708304 103.70172852 176.68814379 103.72352148 170.43913651 103.73705673 C164.55408776 103.74991264 158.66914508 103.77200523 152.78415489 103.80109596 C150.62754019 103.81014413 148.47090843 103.81585551 146.31427574 103.81792641 C143.36178728 103.82126846 140.40959598 103.83679832 137.45716858 103.85523987 C136.61083363 103.85330513 135.76449867 103.8513704 134.89251721 103.84937704 C123.93471206 103.95116627 113.89451346 105.95195261 105.8924408 113.95402527 C99.33679049 122.09093796 96.99224972 130.4120526 97.3299408 140.80168152 C98.74030008 153.07756389 108.18362199 161.90604102 116.58384705 170.16496277 C117.4244014 171.00031555 118.26495575 171.83566833 119.13098145 172.69633484 C121.79931434 175.34697676 124.47427016 177.99079626 127.1502533 180.63371277 C129.82179086 183.2774847 132.49179072 185.92276409 135.15881348 188.5710907 C136.81218959 190.21236717 138.46823016 191.85096559 140.12741089 193.4863739 C143.49278766 196.82286571 146.78906193 200.16007117 149.86167908 203.76945496 C155.66057663 210.50543031 162.06801956 216.69637744 168.33384705 222.99308777 C169.03455889 223.69787514 169.73527073 224.40266251 170.45721626 225.12880707 C174.15931745 228.85165333 177.86460369 232.57129664 181.57237244 236.28849792 C185.38813832 240.11536741 189.19207253 243.95378062 192.99354458 247.79484177 C195.93378727 250.76126103 198.88291173 253.7187295 201.83447456 256.67388153 C203.24078352 258.08504535 204.64372734 259.49957145 206.04313469 260.91757965 C208.00234821 262.90122945 209.97391232 264.87177603 211.94883728 266.83976746 C212.51687576 267.420616 213.08491425 268.00146454 213.67016602 268.59991455 C219.94533251 274.79553831 226.90789648 278.19808349 235.7752533 278.44621277 C244.31987839 278.34367727 252.27926556 275.43037322 258.92759705 270.02433777 C265.224497 263.3554109 268.56136501 254.55825312 268.7752533 245.48136902 C267.74711847 222.57323998 241.6839661 205.03227898 226.48008728 189.99699402 C224.49917664 188.03762282 222.5209142 186.07564683 220.54544067 184.11079407 C218.69673369 182.27244553 216.84391169 180.43822422 214.9866333 178.60853577 C214.16124557 177.78652679 213.33585785 176.96451782 212.48545837 176.11759949 C211.75474625 175.39434479 211.02403412 174.67109009 210.2711792 173.92591858 C208.7127533 172.13371277 208.7127533 172.13371277 208.7127533 170.13371277 C261.5127533 170.13371277 314.3127533 170.13371277 368.7127533 170.13371277 C374.73386771 218.3026281 365.12704223 274.72051561 335.24009705 313.93058777 C334.40119313 315.00108289 333.55869205 316.06876807 332.7127533 317.13371277 C332.27463318 317.68994324 331.83651306 318.24617371 331.38511658 318.81925964 C309.54432269 346.28344842 279.83242686 361.19853151 246.2127533 369.50871277 C244.86624695 369.84830017 244.86624695 369.84830017 243.49253845 370.19474792 C224.88254352 374.49731927 205.89257158 375.58498686 186.85972595 375.55363464 C184.69509451 375.56100165 182.53046695 375.56959534 180.36584473 375.57929993 C174.57128897 375.60122237 168.77687653 375.60446241 162.98228502 375.60255241 C158.12319409 375.6024316 153.26413236 375.61103847 148.40504968 375.61932993 C136.94672473 375.6384497 125.48847263 375.64148619 114.03013611 375.63468933 C102.23498468 375.62802204 90.44014384 375.65104693 78.64505541 375.68800306 C68.47462981 375.7187045 58.30430429 375.73006064 48.13383329 375.72616625 C42.07738853 375.72410322 36.02118703 375.72951312 29.96478653 375.75405884 C24.28285822 375.77633706 18.60143873 375.77443885 12.91950798 375.75413132 C10.84025997 375.75072584 8.76097751 375.75579031 6.68177605 375.7701149 C-14.994608 375.90912478 -14.994608 375.90912478 -23.16794395 368.4076004 C-30.68151579 360.75124352 -30.72291668 351.69555603 -30.67492676 341.55903625 C-30.67910379 340.18157101 -30.68458333 338.80410921 -30.69124657 337.42665374 C-30.70567164 333.65583997 -30.70146572 329.88524532 -30.69407976 326.1144197 C-30.68934306 322.04205394 -30.70186239 317.96973524 -30.71209717 313.89738464 C-30.7292809 305.92474846 -30.73012603 297.9521911 -30.72488426 289.9795412 C-30.7208404 283.49811593 -30.72228869 277.01671393 -30.72763252 270.53528976 C-30.72838094 269.61229026 -30.72912937 268.68929075 -30.72990047 267.73832157 C-30.73143197 265.86315314 -30.73297032 263.98798473 -30.73451544 262.11281632 C-30.74823903 244.53323287 -30.74280386 226.95369395 -30.73133022 209.37411152 C-30.72139882 193.29908018 -30.73433716 177.22416397 -30.75826441 161.14915039 C-30.78265995 144.63483563 -30.79226212 128.12057448 -30.78561169 111.60624206 C-30.78212037 102.33810381 -30.78434572 93.07005408 -30.80186272 83.80192947 C-30.81659039 75.91187195 -30.81721278 68.02196528 -30.79979181 60.1319107 C-30.79128392 56.10834233 -30.78912691 52.08504337 -30.80444336 48.06148911 C-30.81830706 44.37383277 -30.81350621 40.68667624 -30.79420412 36.99904869 C-30.78867813 35.04237459 -30.80270168 33.08567493 -30.81755823 31.12904942 C-30.74029148 21.85140064 -29.36705096 14.16690696 -22.9122467 7.19621277 C-15.94600662 0.87003321 -9.10074977 -0.01822438 0 0 Z " fill="#FFFFFF" transform="translate(262.28724670410156,475.8662872314453)"/>
</svg>
