<svg width="64" height="64" viewBox="0 0 64 64" fill="none" xmlns="http://www.w3.org/2000/svg">
  <rect width="64" height="64" rx="18" fill="none"/>
  <path d="M20 26V46H50V26" stroke="#F8FAFC" stroke-width="4" stroke-linecap="round" stroke-linejoin="round"/>
  <path d="M16 30L34 14L52 30" stroke="#67D0F5" stroke-width="4" stroke-linecap="round" stroke-linejoin="round"/>
  <path d="M27 46V36H43V46" stroke="#CFE3FF" stroke-width="4" stroke-linecap="round" stroke-linejoin="round"/>
  <path d="M7 16C10.5 18 13 21 14 25" stroke="#F8FAFC" stroke-width="3.5" stroke-linecap="round"/>
  <path d="M10 10C15.5 12.5 19.5 17 21 23" stroke="#F8FAFC" stroke-width="3.5" stroke-linecap="round"/>
  <circle cx="13" cy="29" r="2.5" fill="#F8FAFC"/>
  <circle cx="35" cy="27" r="8" stroke="#F8FAFC" stroke-width="4"/>
  <path d="M35 21V17M39.2 22.8L42 20M41 27H45M39.2 31.2L42 34M35 33V37M30.8 31.2L28 34M29 27H25M30.8 22.8L28 20" stroke="#F8FAFC" stroke-width="3" stroke-linecap="round"/>
</svg>
